<svg id="Layer_1" data-name="Layer 1" xmlns="http://www.w3.org/2000/svg" xmlns:xlink="http://www.w3.org/1999/xlink" viewBox="0 0 160 160.28"><defs><style>.cls-1{fill:#f7e0bb;}.cls-2{fill:url(#Dégradé_sans_nom_3);}.cls-3{fill:url(#Dégradé_sans_nom_4);}.cls-4{fill:url(#Dégradé_sans_nom_5);}.cls-5{fill:#b5e2dc;}.cls-6{fill:url(#Dégradé_sans_nom_6);}.cls-7{fill:#7f8fb1;}.cls-8{fill:#92bff2;}.cls-9{fill:#58c2b2;}.cls-10{fill:url(#Dégradé_sans_nom_7);}</style><linearGradient id="Dégradé_sans_nom_3" x1="-69.33" y1="-69" x2="-68.33" y2="-69" gradientTransform="matrix(-5.48, -17, -17, 5.48, -1467.49, -642)" gradientUnits="userSpaceOnUse"><stop offset="0" stop-color="#f5bd67"/><stop offset="0.87" stop-color="#f4ac50"/><stop offset="1" stop-color="#f4a94c"/></linearGradient><linearGradient id="Dégradé_sans_nom_4" x1="-69.33" y1="-69" x2="-68.33" y2="-69" gradientTransform="matrix(35.17, -73.02, -73.02, -35.17, -2543.81, -7342.3)" gradientUnits="userSpaceOnUse"><stop offset="0" stop-color="#f7e0bb"/><stop offset="0.13" stop-color="#f7d8a7"/><stop offset="0.35" stop-color="#f6cc8b"/><stop offset="0.56" stop-color="#f5c477"/><stop offset="0.78" stop-color="#f5bf6b"/><stop offset="1" stop-color="#f5bd67"/></linearGradient><linearGradient id="Dégradé_sans_nom_5" x1="-69.33" y1="-69" x2="-68.33" y2="-69" gradientTransform="matrix(1.76, -26.96, -32.68, -2.14, -2034.72, -1941.47)" gradientUnits="userSpaceOnUse"><stop offset="0" stop-color="#92bff2"/><stop offset="1" stop-color="#89accd"/></linearGradient><linearGradient id="Dégradé_sans_nom_6" x1="-69.33" y1="-69" x2="-68.33" y2="-69" gradientTransform="matrix(6.91, -1.73, -1.73, -6.91, 435.38, -567.56)" gradientUnits="userSpaceOnUse"><stop offset="0" stop-color="#55aca0"/><stop offset="0.46" stop-color="#56b3a6"/><stop offset="1" stop-color="#58c2b2"/></linearGradient><linearGradient id="Dégradé_sans_nom_7" x1="-69.33" y1="-69" x2="-68.33" y2="-69" gradientTransform="matrix(7.42, 3.64, 3.64, -7.42, 827.99, -233.94)" gradientUnits="userSpaceOnUse"><stop offset="0" stop-color="#58c2b2"/><stop offset="0.54" stop-color="#56b3a6"/><stop offset="1" stop-color="#55aca0"/></linearGradient></defs><polygon class="cls-1" points="112.73 9.77 104.45 14.03 102.28 9.64 100.17 10.63 103.48 17.06 113.76 11.77 112.73 9.77"/><path class="cls-1" d="M110.3,1.35a11.36,11.36,0,1,0,7.35,14.28A11.4,11.4,0,0,0,110.3,1.35Zm-6.24,19.47a9.08,9.08,0,1,1,11.43-5.88A9.11,9.11,0,0,1,104.06,20.82Z"/><path class="cls-2" d="M86.08,158.54A19.05,19.05,0,0,0,98.69,135.7l-36.2,11.68A19.07,19.07,0,0,0,86.08,158.54Z"/><path class="cls-3" d="M97.55,74.39a36.73,36.73,0,0,0-40.69-25l-.68-2.1a5.84,5.84,0,0,0-6.07-4.12,5.69,5.69,0,0,0-4.83,7.41L46,52.9A36.73,36.73,0,0,0,27.6,97c19.4,60.16-5.16,41.26.63,59.19a3,3,0,0,0,3.82,2l97.61-31.48a3,3,0,0,0,2-3.82l-.27-.83C126.36,106.49,116.46,133,97.55,74.39Z"/><path class="cls-4" d="M117.73,76.51l3.46-2.28s-9.36-14.41-14.89-20.09c-5.29-5.42-27.52-7.25-27.52-7.25l-2.65,10.5s22.62,3.55,25.23,4.88C105.12,64.19,117.73,76.51,117.73,76.51Z"/><path class="cls-5" d="M108.28,26.24a1.29,1.29,0,0,0-1.09.12c-.35.17-.67.43-1,.64a5.14,5.14,0,0,1-1.38.62c-.29.07-.68,0-.67-.28a.91.91,0,0,1,.14-.34c.2-.36.19-.92-.15-1s-.66.25-.87.58a14.57,14.57,0,0,1-1.38,2.15,8.57,8.57,0,0,1-2,1.3h0c-3.53,1.21-10.68,3.55-12.39,3.28A23.07,23.07,0,0,1,82,30.62c-2.84-1.66-6.3,2.56-1.64,5.32a39.33,39.33,0,0,0,6.13,3.15c2.56.79,12-4.86,15.23-6.84.25-.12.48-.23.53-.24.47-.07,5.55-1.28,6.57-3.77C109.08,27.5,108.92,26.51,108.28,26.24Z"/><path class="cls-6" d="M75.47,20.75C77.85,26.28,82.94,31,82.94,31a16.1,16.1,0,0,0-2.15,5.37s-3.24-1.14-4.41-2.68C75.35,32.35,75,19.65,75.47,20.75Z"/><path class="cls-7" d="M78,8.11s2.79-2,1.55-3.8S73.33-.48,71.13,1.43s-2.81,2.24-6.28,2.51A4.91,4.91,0,0,0,60.42,9.8c.4,2.4,2.2,5.69-.28,8s-6.54,2-7.07,5,4.26,8.42,7.15,9.54c3.75,1.47,6.07-1.27,8.37-3.48,3-2.86,5.15-14.49,4-15.94S74.1,4.45,78,8.11Z"/><path class="cls-8" d="M62.53,51.87s-2.15,4.07,2.19,8.63c3.48,3.66,28.54,6.36,28.54,6.36L88.14,86.74,92,88.41s10.77-21,11-23.44.65-5.19-6.65-9C88.19,51.56,69.74,39.41,62.53,51.87Z"/><path class="cls-9" d="M69.28,19.62s-4.21.08-6,6c-4.95,16.19-1.08,27.24-1.08,27.24S67.89,48.43,72.51,49c10.6,1.38,6.44-4.74,6.31-6.88s1-3.43.53-8.38C78.22,22.86,74.72,19.6,74.72,19.6Z"/><path class="cls-5" d="M77.17,6.72A4.15,4.15,0,0,0,73,7.56a7.73,7.73,0,0,0-1.81,3c-.18.61-.85-.82-1.82-.93a1.2,1.2,0,0,0-.64.07,1.35,1.35,0,0,0-.7,1.22,3,3,0,0,0,.85,1.88c.45.5,1.3.82,1.74,1.34l.18.24-1.48,5.29s5,3.12,5.44,0l.33-1.35a6.46,6.46,0,0,0,1.25,0c2.36-.18,3.33-3,3.3-4.6C79.56,11.54,79.21,7.51,77.17,6.72Z"/><path class="cls-7" d="M116.34,75.51,121,73.27a12,12,0,0,0,2.74,3.64c1.11.78,5.89-2.14,7.67-3.76,1.53-1.38,3.91.68,2.12,2.88a75.34,75.34,0,0,1-6.39,6.23l-3.09,0,1.54,2.06-2.09,1.57Z"/><path class="cls-7" d="M88.42,84.67l4.5,2.57a12.1,12.1,0,0,0-1.43,4.32c0,1.36,5.11,3.63,7.45,4.17,2,.46,1.68,3.6-1.15,3.38A74.5,74.5,0,0,1,89,97.4l-1.77-2.53-.82,2.45L84,96.49Z"/><path class="cls-5" d="M57.55,45.38c-.53-3.25,2.63-12.3,3.6-15.3s4.94-9.07,7.19-8.35a4.19,4.19,0,0,1,2.16,5.59c-1.09,2.34-8.22,13.14-7.89,16.36S66,58.29,66,58.29h0a3.56,3.56,0,0,0,.74.71,14.41,14.41,0,0,0,2.41,1c.37.15.79.41.75.75s-.59.48-1,.35a1,1,0,0,0-.37-.07c-.31,0-.28.45-.15.72A5.15,5.15,0,0,0,69.23,63c.27.3.59.57.83.88a1.33,1.33,0,0,1,.33,1.06c-.14.69-1.1,1-1.89.89-2.69-.54-4.88-5.38-5-5.84l-.17-.37S58.08,48.64,57.55,45.38Z"/><path class="cls-10" d="M67.29,20.45a4.25,4.25,0,0,1,3.79,2.41c.42,1.24.26,2.47-.57,5.12-1,3.19-4.17,7.34-4.17,7.34l-6.23-4S64,20.58,67.29,20.45Z"/></svg>